<?xml version="1.0" encoding="utf-8"?>
<!-- Generator: Adobe Illustrator 16.0.0, SVG Export Plug-In . SVG Version: 6.00 Build 0)  -->
<!DOCTYPE svg PUBLIC "-//W3C//DTD SVG 1.1//EN" "http://www.w3.org/Graphics/SVG/1.1/DTD/svg11.dtd">
<svg version="1.1" id="Layer_1" xmlns="http://www.w3.org/2000/svg" xmlns:xlink="http://www.w3.org/1999/xlink" x="0px" y="0px"
	 width="750.093px" height="161.866px" viewBox="0 0 750.093 161.866" enable-background="new 0 0 750.093 161.866"
	 xml:space="preserve">
<circle fill-rule="evenodd" clip-rule="evenodd" fill="#E9C31D" cx="82.495" cy="81.494" r="80.494"/>
<g>
	<circle fill-rule="evenodd" clip-rule="evenodd" fill="#014594" cx="82.495" cy="81.494" r="73.489"/>
	<path fill-rule="evenodd" clip-rule="evenodd" fill="#E9C31D" d="M65.436,130.456c-10.021,3.737-19.957,1.464-19.957,1.464
		c-25.693-8.398-31.826-31.152-25.37-50.481c-6.456-19.327-0.323-42.082,25.37-50.48c0,0,9.936-2.273,19.957,1.465
		c6.563-6.284,12.267-13.232,16.717-22.827c4.45,9.595,10.153,16.543,16.717,22.827c10.02-3.738,19.956-1.465,19.956-1.465
		c25.693,8.399,31.826,31.153,25.37,50.48c6.456,19.329,0.323,42.083-25.37,50.481c0,0-9.937,2.273-19.956-1.464
		c-6.563,6.284-12.267,13.231-16.717,22.827C77.703,143.688,71.999,136.74,65.436,130.456z"/>
	<path fill-rule="evenodd" clip-rule="evenodd" fill="#FFFFFF" d="M82.153,113.825c-2.953,7.124-7.347,11.62-12.078,14.421
		c0.339,0.335,0.676,0.672,1.011,1.013c4.276,4.345,7.946,8.894,11.066,13.901c3.119-5.008,6.789-9.557,11.065-13.901
		c0.335-0.341,0.672-0.678,1.012-1.013C89.5,125.445,85.105,120.949,82.153,113.825z"/>
	<path fill-rule="evenodd" clip-rule="evenodd" fill="#FFFFFF" d="M139.062,81.439c-1.991,5.238-4.949,10.09-8.609,14.055
		c-6.056,6.562-12.577,12.352-19.413,18.07c-4.41,3.689-8.892,7.328-13.144,11.207c-5.105-2.627-8.86-6.926-11.29-12.791
		l-4.452-10.744l-4.453,10.744c-2.43,5.865-6.185,10.163-11.291,12.791c-4.252-3.88-8.733-7.518-13.143-11.207
		c-6.836-5.719-13.357-11.509-19.414-18.07c-2.888-3.13-5.282-6.727-7.121-10.565c-0.543-1.135-1.042-2.3-1.493-3.49
		c0.451-1.189,0.95-2.354,1.493-3.488c1.839-3.838,4.233-7.436,7.121-10.565c6.057-6.562,12.578-12.352,19.414-18.071
		c4.41-3.689,8.891-7.327,13.143-11.207c5.106,2.628,8.86,6.926,11.291,12.791l4.453,10.744l4.452-10.744
		c2.43-5.865,6.185-10.164,11.29-12.792c4.252,3.88,8.733,7.518,13.144,11.207c6.836,5.719,13.357,11.509,19.413,18.071
		C134.112,71.351,137.07,76.202,139.062,81.439z"/>
	<path fill-rule="evenodd" clip-rule="evenodd" fill="#009A4E" d="M102.953,126.709c9.259-8.188,19.923-15.902,31.041-27.946
		c2.814-3.05,5.209-6.478,7.132-10.134c1.227,6.234,1.053,12.68-0.912,18.604c-3.533,10.657-11.989,17.051-22.552,20.01
		c-3.83,0.825-9.049,0.662-12.812-0.089C104.202,127.023,103.57,126.875,102.953,126.709z"/>
	<path fill-rule="evenodd" clip-rule="evenodd" fill="#009A4E" d="M23.183,88.635c1.922,3.654,4.315,7.08,7.129,10.128
		c11.118,12.044,21.782,19.759,31.041,27.946c-0.618,0.166-1.25,0.314-1.896,0.443c-3.764,0.752-8.982,0.915-12.813,0.09
		c-10.562-2.959-19.019-9.353-22.552-20.01C22.119,101.283,21.972,94.822,23.183,88.635z"/>
	<path fill="#DA2027" d="M42.985,68.899h4.866v-7.407h4.749v7.407h2.436c-0.221-0.661-0.436-1.352-0.65-2.064l4.015-1.205
		c1.218,2.954,2.146,5.739,2.796,8.347V61.324h4.506v20.839c-0.111,7.804-2.547,14.307-7.302,19.502l-4.181-3.615
		c3.627-3.218,5.842-7.149,6.652-11.802c-1.62,1.838-3.191,3.402-4.7,4.696l-2.637-5.511c0.513-0.199,0.997-0.449,1.461-0.735
		c-0.706-1.176-1.502-2.322-2.395-3.439v19.892h-4.749V84.396c-1.024,2.902-2.256,5.615-3.689,8.143l-1.945-7.105
		c2.458-3.587,4.174-7.481,5.15-11.669h-4.381V68.899L42.985,68.899z M52.599,75.572c2.457,1.727,4.298,3.233,5.516,4.519
		l-2.554,4.263c1.862-1.205,3.745-2.881,5.634-5.034v-2.888l-4.257,1.293c-0.138-1.293-0.353-2.608-0.651-3.96h-3.689V75.572
		L52.599,75.572z M72.672,61.324v12.999c1.385-2.756,2.464-5.769,3.247-9.038l4.257,1.073c-0.644,3.85-1.73,7.634-3.239,11.367
		l-4.264-2.197v2.755c3.627,2.211,6.292,4.137,7.995,5.769l-3.128,5.173c-1.35-1.756-2.969-3.476-4.866-5.173V94.56
		c0.083,1.065,0.519,1.595,1.301,1.595h0.16c0.512,0,0.893-0.184,1.135-0.559c0.27-0.287,0.436-1.999,0.491-5.129l4.742,1.036
		c-0.27,4.107-0.824,6.789-1.661,8.054c-0.651,0.947-1.828,1.418-3.53,1.418h-3.89c-2.381,0-3.571-1.609-3.571-4.82v-34.83H72.672
		L72.672,61.324z M122.607,62.007v39.658h-5.191v-1.419H91.301v1.419h-5.191V62.007H122.607L122.607,62.007z M91.301,96.154h26.115
		V66.188H91.301v22.993c2.672-0.463,5.205-1.353,7.579-2.675h-5.268V78.54h21.693v7.966h-3.406l2.638,1.727
		c-0.43,0.633-0.879,1.234-1.336,1.808c1.19,0.427,2.43,0.919,3.73,1.463l-1.91,4.137c-3.703-1.983-7.164-3.49-10.383-4.526
		l2.07-3.057c0.705,0.146,1.433,0.33,2.193,0.565c0.457-0.69,0.88-1.396,1.253-2.116h-5.434c-0.131,0.146-0.27,0.287-0.401,0.434
		v7.965h-4.748V90.73c-1.973,1.265-4.14,2.264-6.485,3.014l-1.786-3.792V96.154L91.301,96.154z M93.771,68.084v3.784h8.071v1.55
		h-9.531v3.792h24.171v-3.792h-9.448v-1.55h7.828v-3.784h-7.828v-1.727h-5.191v1.727H93.771L93.771,68.084z M110.439,83.412v-1.771
		H98.479v1.771H110.439z"/>
	<path fill-rule="evenodd" clip-rule="evenodd" fill="#FFFFFF" d="M102.953,36.17c9.259,8.188,19.923,15.902,31.041,27.947
		c2.814,3.05,5.209,6.477,7.132,10.134c1.227-6.234,1.053-12.68-0.912-18.604c-3.533-10.657-11.989-17.051-22.552-20.01
		c-3.83-0.825-9.049-0.663-12.812,0.089C104.202,35.855,103.57,36.004,102.953,36.17z"/>
	<path fill-rule="evenodd" clip-rule="evenodd" fill="#FFFFFF" d="M23.183,74.245c1.922-3.654,4.315-7.08,7.129-10.128
		C41.43,52.072,52.094,44.358,61.353,36.17c-0.618-0.167-1.25-0.315-1.896-0.444c-3.764-0.752-8.982-0.914-12.813-0.089
		c-10.562,2.959-19.019,9.353-22.552,20.01C22.119,61.596,21.972,68.057,23.183,74.245z"/>
	<path fill-rule="evenodd" clip-rule="evenodd" fill="#009A4E" d="M82.153,49.054c-2.953-7.125-7.347-11.62-12.078-14.42
		c0.339-0.335,0.676-0.673,1.011-1.013c4.276-4.344,7.946-8.894,11.066-13.901c3.119,5.007,6.789,9.557,11.065,13.901
		c0.335,0.34,0.672,0.678,1.012,1.013C89.5,37.434,85.105,41.929,82.153,49.054z"/>
</g>
<g>
	<path stroke="#000000" stroke-width="1.4173" stroke-miterlimit="10" d="M225.992,49.4l-2.432,2.402
		c-1.484-2.734-3.125-5.254-4.922-7.559v31.26h-3.135v-29.15c-2.285,5.469-4.561,9.971-6.826,13.506l-2.109-2.578
		c3.652-5.723,6.592-12.001,8.818-18.838h-7.441v-3.135h7.559v-12.07h3.135v12.07h5.449v3.135h-5.449v1.26
		C221.529,42.711,223.98,45.943,225.992,49.4z M238.619,50.191c0,11.29-3.848,19.951-11.543,25.986l-2.256-2.402
		c6.66-5.254,10.176-12.314,10.547-21.182c-2.949,2.891-6.211,5.606-9.785,8.145l-2.109-2.578c3.848-2.363,7.91-5.761,12.188-10.195
		V23.238h2.959V50.191z M233.316,42.047l-2.812,1.553c-1.211-3.691-3.135-7.695-5.771-12.012l2.725-1.67
		C229.996,34.118,231.949,38.161,233.316,42.047z M259.303,64.723c-0.137,4.238-0.708,7.007-1.714,8.306s-2.915,1.948-5.728,1.948
		c-3.301,0-5.483-0.356-6.548-1.069c-1.064-0.713-1.597-2.222-1.597-4.526V23.238h3.047v15.908c3.438-2.656,6.24-5.391,8.408-8.203
		l2.402,2.021c-2.93,3.457-6.533,6.758-10.811,9.902v6.182c4.824,2.871,8.809,5.811,11.953,8.818l-1.816,2.637
		c-3.535-3.262-6.914-5.957-10.137-8.086v17.52c0,0.567,0.249,1.03,0.747,1.392c0.498,0.362,2.173,0.542,5.024,0.542
		c1.387,0,2.246-0.273,2.578-0.82c0.332-0.546,0.605-1.645,0.82-3.296c0.215-1.65,0.322-2.983,0.322-3.999L259.303,64.723z"/>
	<path stroke="#000000" stroke-width="1.4173" stroke-miterlimit="10" d="M322.725,75.68h-3.047v-2.988h-41.162v2.988h-3.076V24.645
		h47.285V75.68z M319.678,69.762V27.574h-41.162v42.188H319.678z M312.939,54.762h-14.824c-0.938,1.329-2.393,2.823-4.365,4.482
		v5.303c2.363-0.469,4.941-1.191,7.734-2.168l0.41,2.754c-3.594,1.23-7.246,2.208-10.957,2.93l-1.143-2.637
		c0.684-0.273,1.025-0.771,1.025-1.494v-2.637c-3.828,2.012-6.914,3.292-9.258,3.838l-1.67-2.637
		c6.094-1.367,10.869-3.945,14.326-7.734h-8.994v-9.551h27.715V54.762z M316.895,41.49h-35.684v-2.637h16.377V34.84h-13.975v-2.578
		h13.975v-3.076h2.93v3.076h14.062v2.578h-14.062v4.014h16.377V41.49z M309.951,52.066v-4.16h-21.738v4.16H309.951z M316.777,65.543
		l-1.904,2.227c-4.219-2.988-9.385-5.986-15.498-8.994l1.758-2.344c2.051,0.938,4.209,2.041,6.475,3.311
		c1.387-0.977,2.822-2.139,4.307-3.486l2.168,1.787c-1.621,1.563-2.9,2.647-3.838,3.252
		C312.256,62.486,314.434,63.902,316.777,65.543z"/>
	<path stroke="#000000" stroke-width="1.4173" stroke-miterlimit="10" d="M390.834,33.873h-24.492v9.492h20.332v22.441
		c0,1.329-0.371,2.378-1.113,3.149c-0.742,0.772-1.655,1.216-2.739,1.333s-3.579,0.137-7.485,0.059l-1.611-3.223
		c1.406,0.078,2.812,0.117,4.219,0.117c2.637,0,4.233-0.142,4.79-0.425c0.557-0.283,0.835-0.766,0.835-1.45V46.471h-17.227v29.355
		h-3.164V46.471h-17.051v23.877h-3.252V43.365h20.303v-9.492h-24.551v-3.135h25.254c-1.035-1.894-2.578-4.033-4.629-6.416
		l2.959-1.494c1.602,1.622,3.457,4.258,5.566,7.91h23.057V33.873z"/>
	<path stroke="#000000" stroke-width="1.4173" stroke-miterlimit="10" d="M423.992,49.4l-2.432,2.402
		c-1.484-2.734-3.125-5.254-4.922-7.559v31.26h-3.135v-29.15c-2.285,5.469-4.561,9.971-6.826,13.506l-2.109-2.578
		c3.652-5.723,6.592-12.001,8.818-18.838h-7.441v-3.135h7.559v-12.07h3.135v12.07h5.449v3.135h-5.449v1.26
		C419.529,42.711,421.98,45.943,423.992,49.4z M436.619,50.191c0,11.29-3.848,19.951-11.543,25.986l-2.256-2.402
		c6.66-5.254,10.176-12.314,10.547-21.182c-2.949,2.891-6.211,5.606-9.785,8.145l-2.109-2.578c3.848-2.363,7.91-5.761,12.188-10.195
		V23.238h2.959V50.191z M431.316,42.047l-2.812,1.553c-1.211-3.691-3.135-7.695-5.771-12.012l2.725-1.67
		C427.996,34.118,429.949,38.161,431.316,42.047z M457.303,64.723c-0.137,4.238-0.708,7.007-1.714,8.306s-2.915,1.948-5.728,1.948
		c-3.301,0-5.483-0.356-6.548-1.069c-1.064-0.713-1.597-2.222-1.597-4.526V23.238h3.047v15.908c3.438-2.656,6.24-5.391,8.408-8.203
		l2.402,2.021c-2.93,3.457-6.533,6.758-10.811,9.902v6.182c4.824,2.871,8.809,5.811,11.953,8.818l-1.816,2.637
		c-3.535-3.262-6.914-5.957-10.137-8.086v17.52c0,0.567,0.249,1.03,0.747,1.392c0.498,0.362,2.173,0.542,5.024,0.542
		c1.387,0,2.246-0.273,2.578-0.82c0.332-0.546,0.605-1.645,0.82-3.296c0.215-1.65,0.322-2.983,0.322-3.999L457.303,64.723z"/>
	<path stroke="#000000" stroke-width="1.4173" stroke-miterlimit="10" d="M520.725,75.68h-3.047v-2.988h-41.162v2.988h-3.076V24.645
		h47.285V75.68z M517.678,69.762V27.574h-41.162v42.188H517.678z M510.939,54.762h-14.824c-0.938,1.329-2.393,2.823-4.365,4.482
		v5.303c2.363-0.469,4.941-1.191,7.734-2.168l0.41,2.754c-3.594,1.23-7.246,2.208-10.957,2.93l-1.143-2.637
		c0.684-0.273,1.025-0.771,1.025-1.494v-2.637c-3.828,2.012-6.914,3.292-9.258,3.838l-1.67-2.637
		c6.094-1.367,10.869-3.945,14.326-7.734h-8.994v-9.551h27.715V54.762z M514.895,41.49h-35.684v-2.637h16.377V34.84h-13.975v-2.578
		h13.975v-3.076h2.93v3.076h14.062v2.578h-14.062v4.014h16.377V41.49z M507.951,52.066v-4.16h-21.738v4.16H507.951z M514.777,65.543
		l-1.904,2.227c-4.219-2.988-9.385-5.986-15.498-8.994l1.758-2.344c2.051,0.938,4.209,2.041,6.475,3.311
		c1.387-0.977,2.822-2.139,4.307-3.486l2.168,1.787c-1.621,1.563-2.9,2.647-3.838,3.252
		C510.256,62.486,512.434,63.902,514.777,65.543z"/>
	<path stroke="#000000" stroke-width="1.4173" stroke-miterlimit="10" d="M554.879,63.521c-6.133,3.204-11.797,5.703-16.992,7.5
		l-0.85-3.018c2.441-0.801,4.941-1.797,7.5-2.988V41.314h-6.885v-3.076h6.885V23.971h3.135v14.268h6.533v3.076h-6.533v22.383
		c3.34-1.66,5.576-2.802,6.709-3.428L554.879,63.521z M589.361,64.225c-0.195,4.004-0.791,6.719-1.787,8.145
		s-1.968,2.212-2.915,2.358s-4.126,0.22-9.536,0.22c-7.344,0-11.689-0.059-13.037-0.176s-2.339-0.615-2.974-1.494
		s-0.952-1.914-0.952-3.105V45.738l-5.332,1.816l-0.469-3.076l5.801-1.963v-12.48h2.959v11.514l9.463-3.223V23.385h3.076v13.857
		l13.066-4.512c-0.098,7.891-1.152,16.329-3.164,25.312l-3.018-0.879c1.68-7.246,2.686-13.975,3.018-20.186l-9.902,3.369v23.408
		h-3.076V41.432l-9.463,3.311v25.605c0,0.176,0.127,0.406,0.381,0.688c0.254,0.283,0.479,0.469,0.674,0.557s1.387,0.166,3.574,0.234
		c2.188,0.069,4.404,0.103,6.65,0.103c6.797,0,10.732-0.186,11.807-0.557c1.074-0.371,1.797-3.066,2.168-8.086L589.361,64.225z"/>
	<path stroke="#000000" stroke-width="1.4173" stroke-miterlimit="10" d="M655.068,74.303h-42.012c-1.777,0-3.271-0.571-4.482-1.714
		s-1.816-2.69-1.816-4.644V27.633h-3.721v-3.047h50.83v3.047h-43.916v40.43c0,0.84,0.361,1.582,1.084,2.227s1.416,0.967,2.08,0.967
		h41.953V74.303z M629.99,65.719h-15.732V50.66h15.732V65.719z M626.855,62.789v-9.111h-9.404v9.111H626.855z M644.082,45.504
		h-24.404V32.496h24.404V45.504z M640.977,42.516v-7.031h-18.135v7.031H640.977z M650.996,65.807h-15.498V50.719h15.498V65.807z
		 M647.979,62.848v-9.111h-9.346v9.111H647.979z"/>
</g>
<g>
	<path fill="#58595B" stroke="#58595B" stroke-width="1.4173" stroke-miterlimit="10" d="M218.458,111.47l-1.66,2.295
		c-2.702-2.246-6.096-4.346-10.181-6.299l1.44-2.148C212.062,107.141,215.528,109.191,218.458,111.47z M218.36,119.258
		c-2.019,5.11-5.307,10.498-9.863,16.162l-1.831-1.904c4.557-5.632,7.739-10.93,9.546-15.894L218.36,119.258z M219.801,99.556
		l-1.636,2.1c-2.165-2.181-5.371-4.411-9.619-6.689l1.66-2.1C214.063,94.966,217.262,97.195,219.801,99.556z M250.001,107.417
		h-19.336l-2.612,8.398h18.994c-0.31,4.297-0.847,8.13-1.611,11.499c-0.766,3.369-1.453,5.48-2.062,6.335
		c-0.611,0.854-1.575,1.497-2.894,1.929s-3.833,0.647-7.544,0.647c-0.993,0-1.872-0.024-2.637-0.073l-0.903-2.783
		c2.018,0.244,3.922,0.366,5.713,0.366c3.174,0,5.103-0.33,5.786-0.989s1.355-2.461,2.014-5.407c0.66-2.946,1.062-5.925,1.209-8.936
		h-19.604l3.345-10.986h-8.96v-2.441h31.104V107.417z M247.901,96.357h-26.685v-2.637h26.685V96.357z"/>
	<path fill="#58595B" stroke="#58595B" stroke-width="1.4173" stroke-miterlimit="10" d="M276.305,103.608
		c-1.693,11.979-6.975,21.411-15.845,28.296l-1.855-2.1c7.894-6.185,12.744-14.03,14.551-23.535h-12.646v-2.661H276.305z
		 M302.599,129.316l-1.782,2.344c-8.073-5.144-14.177-11.841-18.311-20.093v20.85c0,1.123-0.207,1.953-0.623,2.49
		c-0.414,0.537-0.932,0.87-1.55,1.001c-0.619,0.13-1.953,0.195-4.004,0.195c-1.66,0-2.922-0.033-3.784-0.098l-0.879-2.686
		c3.369,0.098,5.664,0.146,6.885,0.146c0.862,0,1.294-0.432,1.294-1.294V92.207h2.661v10.815c0,2.425,0.83,4.988,2.49,7.69
		c5.582-4.28,9.871-8.366,12.866-12.256l2.148,1.758c-3.483,4.329-8.049,8.61-13.696,12.842
		C289.276,118.933,294.704,124.353,302.599,129.316z"/>
	<path fill="#58595B" stroke="#58595B" stroke-width="1.4173" stroke-miterlimit="10" d="M354.757,96.211h-22.656v10.693
		c8.707,4.622,14.591,8.276,17.651,10.962l-1.587,2.441c-4.265-3.564-9.619-7.031-16.064-10.4v26.147h-2.686V96.211h-18.018v-2.686
		h43.359V96.211z"/>
	<path fill="#58595B" stroke="#58595B" stroke-width="1.4173" stroke-miterlimit="10" d="M381.305,103.608
		c-1.693,11.979-6.975,21.411-15.845,28.296l-1.855-2.1c7.894-6.185,12.744-14.03,14.551-23.535h-12.646v-2.661H381.305z
		 M407.599,129.316l-1.782,2.344c-8.073-5.144-14.177-11.841-18.311-20.093v20.85c0,1.123-0.207,1.953-0.623,2.49
		c-0.414,0.537-0.932,0.87-1.55,1.001c-0.619,0.13-1.953,0.195-4.004,0.195c-1.66,0-2.922-0.033-3.784-0.098l-0.879-2.686
		c3.369,0.098,5.664,0.146,6.885,0.146c0.862,0,1.294-0.432,1.294-1.294V92.207h2.661v10.815c0,2.425,0.83,4.988,2.49,7.69
		c5.582-4.28,9.871-8.366,12.866-12.256l2.148,1.758c-3.483,4.329-8.049,8.61-13.696,12.842
		C394.276,118.933,399.704,124.353,407.599,129.316z"/>
	<path fill="#58595B" stroke="#58595B" stroke-width="1.4173" stroke-miterlimit="10" d="M460.147,132.856l-0.684,2.515h-19.653
		c-7.275,0-12.663-1.855-16.162-5.566c-1.986,2.815-3.866,4.972-5.64,6.47l-1.953-1.514c4.769-4.004,7.886-9.538,9.351-16.602
		h-8.203v-2.344c3.174-3.987,5.745-7.487,7.715-10.498h-8.569v-2.246h11.499v2.246c-2.588,3.841-5.103,7.324-7.544,10.449h7.69
		v2.393c-0.83,3.548-1.88,6.665-3.149,9.351c2.945,3.564,7.601,5.347,13.965,5.347H460.147z M426.554,99.873l-2.051,1.636
		c-1.872-2.734-4.167-5.184-6.885-7.349l1.782-1.953C422.736,95.022,425.121,97.578,426.554,99.873z M459.708,101.167h-14.697
		c-0.57,1.579-1.172,3.06-1.807,4.443h13.159v22.998h-24.219V105.61h8.301c0.748-1.53,1.367-3.011,1.855-4.443H428.8v-2.393h30.908
		V101.167z M440.763,96.504l-2.295,1.367c-1.514-1.611-3.101-3.044-4.761-4.297l2.295-1.416
		C437.89,93.704,439.477,95.153,440.763,96.504z M453.897,112.373v-4.297h-19.189v4.297H453.897z M453.897,119.355v-4.639h-19.189
		v4.639H453.897z M453.897,126.313v-4.59h-19.189v4.59H453.897z M455.509,93.574c-1.498,1.497-3.345,2.979-5.542,4.443l-2.368-1.562
		c1.92-1.074,3.76-2.49,5.518-4.248L455.509,93.574z"/>
	<path fill="#58595B" stroke="#58595B" stroke-width="1.4173" stroke-miterlimit="10" d="M484.596,125.312
		c-3.76,3.174-8.505,5.778-14.233,7.812l-1.66-2.222c6.478-2.393,11.075-4.826,13.794-7.3L484.596,125.312z M511.012,121.455
		l-2.246,1.514c-0.766-1.172-1.75-2.474-2.954-3.906c-6.479,0.684-10.962,1.131-13.452,1.343v12.671
		c0,0.732-0.244,1.351-0.732,1.855c-0.488,0.504-1.034,0.821-1.636,0.952c-0.603,0.13-1.718,0.195-3.345,0.195
		c-0.912,0-1.758-0.024-2.539-0.073l-1.099-2.637c0.928,0.049,1.896,0.073,2.905,0.073c1.709,0,2.759-0.041,3.149-0.122
		s0.586-0.464,0.586-1.147v-11.499c-7.324,0.456-12.842,0.749-16.553,0.879l-0.781-2.197c6.104-2.214,12.101-4.891,17.993-8.032
		c-5.778,0.342-10.93,0.569-15.454,0.684l-0.659-1.831c7.552-2.751,13.59-6.201,18.115-10.352l2.49,1.44
		c-3.451,2.995-7.602,5.681-12.451,8.057c1.627-0.065,3.186-0.135,4.676-0.208c1.488-0.073,2.949-0.166,4.382-0.28
		c2.75-0.228,4.272-0.432,4.565-0.61c2.148-1.351,4.224-2.808,6.226-4.37l2.319,1.611c-5.355,4.118-13.396,8.569-24.121,13.354
		c8.072-0.293,15.877-0.928,23.413-1.904c-0.766-0.879-2.035-2.092-3.809-3.638l2.246-1.514
		C505.99,115.148,508.912,118.379,511.012,121.455z M495.753,93.574c-4.655,4.216-11.654,7.544-20.996,9.985l-2.002-2.295
		c9.293-2.019,16.211-5.07,20.752-9.155L495.753,93.574z M512.257,131.074l-1.709,2.148c-3.598-2.979-7.797-5.583-12.598-7.812
		l1.709-2.1C504.444,125.589,508.644,128.177,512.257,131.074z"/>
	<path fill="#58595B" stroke="#58595B" stroke-width="1.4173" stroke-miterlimit="10" d="M526.695,124.214
		c-0.863,5.257-1.872,9.172-3.027,11.743l-2.368-0.854c1.367-3.304,2.352-7.137,2.954-11.499L526.695,124.214z M538.756,121.113
		l-2.295,0.806c-0.244-1.14-0.513-2.107-0.806-2.905c-4.362,1.384-8.765,2.531-13.208,3.442l-0.732-2.295
		c3.531-3.581,6.812-7.698,9.839-12.354c-2.637,0.554-5.583,1.042-8.838,1.465l-0.659-2.368c3.809-4.932,6.559-9.831,8.252-14.697
		l2.344,0.854c-1.449,4.248-3.882,8.716-7.3,13.403c2.637-0.31,5.257-0.789,7.861-1.44c0.586-0.879,1.253-2.132,2.002-3.76
		l2.295,1.001c-2.604,5.437-6.421,11.052-11.45,16.846c1.985-0.342,4.915-1.172,8.789-2.49c-0.342-0.977-0.757-2.01-1.245-3.101
		l2.246-0.952C537.413,116.263,538.381,119.111,538.756,121.113z M532.848,133.857l-2.539,0.513
		c-0.098-3.679-0.635-7.08-1.611-10.205l2.515-0.391C532.237,128.445,532.782,131.807,532.848,133.857z M538.561,129.902
		l-2.344,0.757c-0.424-2.229-1.091-4.598-2.002-7.104l2.295-0.684C537.34,124.987,538.023,127.331,538.561,129.902z
		 M564.708,100.508H549.4c-2.246,4.671-4.477,8.423-6.689,11.255c4.915-0.212,10.132-0.765,15.649-1.66
		c-1.172-1.692-2.409-3.239-3.711-4.639l2.197-1.392c3.157,3.76,5.606,7.243,7.349,10.449l-2.1,1.538
		c-0.7-1.367-1.465-2.612-2.295-3.735l-4.639,0.732v18.652c0,0.732,0.382,1.099,1.147,1.099h3.54c0.472,0,0.854-0.146,1.147-0.439
		s0.541-1.311,0.745-3.052c0.203-1.741,0.32-3.711,0.354-5.908l2.515,0.903c-0.082,3.76-0.334,6.327-0.757,7.702
		c-0.424,1.376-1.046,2.274-1.867,2.698c-0.822,0.423-2.21,0.635-4.163,0.635c-1.986,0-3.345-0.236-4.077-0.708
		c-0.732-0.473-1.099-1.367-1.099-2.686v-18.579c-2.768,0.325-4.484,0.488-5.151,0.488c0,10.042-3.101,17.456-9.302,22.241
		l-1.733-1.782c2.718-2.181,4.806-4.806,6.262-7.874c1.457-3.067,2.201-7.182,2.234-12.341c-0.83,0.13-2.661,0.236-5.493,0.317
		l-0.562-2.271c2.588-2.49,5.176-6.372,7.764-11.646h-8.472v-2.441h9.619c0.569-1.286,1.351-3.255,2.344-5.908l2.441,0.757
		c-0.847,2.312-1.547,4.028-2.1,5.151h14.209V100.508z"/>
	<path fill="#58595B" stroke="#58595B" stroke-width="1.4173" stroke-miterlimit="10" d="M575.411,133.564V95.747h10.571
		c3.141,0,5.672,0.789,7.593,2.368c1.92,1.579,2.881,3.67,2.881,6.274c0,2.116-0.565,3.972-1.696,5.566
		c-1.132,1.595-2.731,2.742-4.798,3.442v0.098c2.522,0.244,4.554,1.188,6.091,2.832c1.539,1.644,2.308,3.776,2.308,6.396
		c0,3.206-1.151,5.814-3.454,7.824c-2.304,2.011-5.213,3.016-8.729,3.016H575.411z M579.562,99.604v12.427h4.59
		c2.506,0,4.459-0.599,5.859-1.795c1.399-1.196,2.1-2.868,2.1-5.017c0-3.743-2.441-5.615-7.324-5.615H579.562z M579.562,115.864
		v13.843h6.128c2.604,0,4.643-0.623,6.115-1.868c1.474-1.245,2.21-2.966,2.21-5.163c0-4.541-3.109-6.812-9.326-6.812H579.562z"/>
	<path fill="#58595B" stroke="#58595B" stroke-width="1.4173" stroke-miterlimit="10" d="M606.134,115.107
		c0-6.071,1.647-10.921,4.944-14.551c3.295-3.63,7.751-5.444,13.366-5.444c5.208,0,9.403,1.774,12.585,5.322
		c3.183,3.548,4.773,8.122,4.773,13.721c0,6.038-1.607,10.889-4.822,14.551c-3.214,3.662-7.604,5.493-13.171,5.493
		c-5.322,0-9.599-1.782-12.829-5.347C607.749,125.288,606.134,120.706,606.134,115.107z M610.504,114.717
		c0,4.541,1.204,8.297,3.613,11.267c2.408,2.971,5.631,4.456,9.668,4.456c4.312,0,7.67-1.404,10.07-4.212
		c2.401-2.808,3.602-6.62,3.602-11.438c0-4.98-1.16-8.87-3.479-11.67c-2.32-2.8-5.604-4.199-9.852-4.199
		c-4.135,0-7.438,1.493-9.912,4.479C611.74,106.388,610.504,110.159,610.504,114.717z"/>
	<path fill="#58595B" stroke="#58595B" stroke-width="1.4173" stroke-miterlimit="10" d="M671.476,99.556h-10.913v34.009h-4.175
		V99.556h-10.889v-3.809h25.977V99.556z"/>
	<path fill="#58595B" stroke="#58595B" stroke-width="1.4173" stroke-miterlimit="10" d="M721.925,123.018h-20.41v13.037h-2.539
		v-13.037h-20.41v-2.515h20.41v-3.687h2.539v3.687h20.41V123.018z M694.63,126.753c-4.118,3.483-8.716,6.307-13.794,8.472
		l-1.807-2.051c5.24-2.148,9.708-4.802,13.403-7.959L694.63,126.753z M720.387,106.318h-11.621c-1.433,2.132-3.061,4.012-4.883,5.64
		c5.094,1.27,10.294,2.84,15.601,4.712l-1.514,2.197c-4.135-1.595-9.619-3.279-16.455-5.054c-4.411,2.8-11.41,4.265-20.996,4.395
		l-1.294-2.441c8.643,0,14.859-0.92,18.652-2.759c-4.167-1.025-8.081-1.888-11.743-2.588c1.367-1.27,2.677-2.637,3.931-4.102H680.03
		v-2.393h12.158c1.302-1.562,2.563-3.182,3.784-4.858l2.295,1.001c-0.928,1.399-1.904,2.686-2.93,3.857h11.987
		c0.553-0.847,1.017-1.701,1.392-2.563l2.515,0.513c-0.163,0.537-0.464,1.221-0.903,2.051h10.059V106.318z M719.923,101.606h-2.637
		v-3.149h-34.009v3.149h-2.661v-5.64h18.75c-0.391-0.847-0.92-1.848-1.587-3.003l2.49-0.806c0.472,0.765,1.204,2.034,2.197,3.809
		h17.456V101.606z M705.567,106.318h-12.231c-0.635,0.798-1.392,1.66-2.271,2.588c2.066,0.423,5.354,1.172,9.863,2.246
		C702.475,110.095,704.021,108.483,705.567,106.318z M721.534,133.076l-1.904,1.929c-3.891-2.734-8.562-5.266-14.014-7.593
		l1.855-2.1C713.38,127.966,718.067,130.554,721.534,133.076z"/>
</g>
</svg>
